<mxfile host="app.diagrams.net" modified="2023-06-03T12:36:04.554Z" agent="Mozilla/5.0 (Windows NT 10.0; Win64; x64) AppleWebKit/537.36 (KHTML, like Gecko) Chrome/113.0.0.0 Safari/537.36" etag="P-Ca1jCXjPWTWf0vJo_C" version="21.3.6" type="github">
  <diagram name="第 1 页" id="jJ5aWBsWnFSllu3UQWGi">
    <mxGraphModel dx="1434" dy="756" grid="1" gridSize="10" guides="1" tooltips="1" connect="1" arrows="1" fold="1" page="1" pageScale="1" pageWidth="3300" pageHeight="4681" math="0" shadow="0">
      <root>
        <mxCell id="0" />
        <mxCell id="1" parent="0" />
        <mxCell id="GQO7zx4dWMf84l5eFwv9-3" value="" style="group" parent="1" vertex="1" connectable="0">
          <mxGeometry x="190" y="140" width="120" height="60" as="geometry" />
        </mxCell>
        <mxCell id="GQO7zx4dWMf84l5eFwv9-1" value="" style="rounded=0;whiteSpace=wrap;html=1;" parent="GQO7zx4dWMf84l5eFwv9-3" vertex="1">
          <mxGeometry width="120" height="60" as="geometry" />
        </mxCell>
        <mxCell id="GQO7zx4dWMf84l5eFwv9-2" value="IO流程" style="text;html=1;strokeColor=none;fillColor=none;align=center;verticalAlign=middle;whiteSpace=wrap;rounded=0;" parent="GQO7zx4dWMf84l5eFwv9-3" vertex="1">
          <mxGeometry x="30" y="15" width="60" height="30" as="geometry" />
        </mxCell>
        <mxCell id="GQO7zx4dWMf84l5eFwv9-4" value="" style="group" parent="1" vertex="1" connectable="0">
          <mxGeometry x="370" y="230" width="120" height="60" as="geometry" />
        </mxCell>
        <mxCell id="GQO7zx4dWMf84l5eFwv9-5" value="" style="rounded=0;whiteSpace=wrap;html=1;" parent="GQO7zx4dWMf84l5eFwv9-4" vertex="1">
          <mxGeometry width="120" height="60" as="geometry" />
        </mxCell>
        <mxCell id="GQO7zx4dWMf84l5eFwv9-6" value="网络IO" style="text;html=1;strokeColor=none;fillColor=none;align=center;verticalAlign=middle;whiteSpace=wrap;rounded=0;" parent="GQO7zx4dWMf84l5eFwv9-4" vertex="1">
          <mxGeometry x="30" y="15" width="60" height="30" as="geometry" />
        </mxCell>
        <mxCell id="GQO7zx4dWMf84l5eFwv9-7" value="" style="group" parent="1" vertex="1" connectable="0">
          <mxGeometry x="370" y="80" width="120" height="60" as="geometry" />
        </mxCell>
        <mxCell id="GQO7zx4dWMf84l5eFwv9-8" value="" style="rounded=0;whiteSpace=wrap;html=1;" parent="GQO7zx4dWMf84l5eFwv9-7" vertex="1">
          <mxGeometry width="120" height="60" as="geometry" />
        </mxCell>
        <mxCell id="GQO7zx4dWMf84l5eFwv9-9" value="磁盘IO" style="text;html=1;strokeColor=none;fillColor=none;align=center;verticalAlign=middle;whiteSpace=wrap;rounded=0;" parent="GQO7zx4dWMf84l5eFwv9-7" vertex="1">
          <mxGeometry x="30" y="15" width="60" height="30" as="geometry" />
        </mxCell>
        <mxCell id="GQO7zx4dWMf84l5eFwv9-12" style="edgeStyle=orthogonalEdgeStyle;rounded=0;orthogonalLoop=1;jettySize=auto;html=1;exitX=0.5;exitY=0;exitDx=0;exitDy=0;" parent="1" source="GQO7zx4dWMf84l5eFwv9-1" target="GQO7zx4dWMf84l5eFwv9-8" edge="1">
          <mxGeometry relative="1" as="geometry" />
        </mxCell>
        <mxCell id="GQO7zx4dWMf84l5eFwv9-13" style="edgeStyle=orthogonalEdgeStyle;rounded=0;orthogonalLoop=1;jettySize=auto;html=1;exitX=0.5;exitY=1;exitDx=0;exitDy=0;entryX=0;entryY=0.5;entryDx=0;entryDy=0;" parent="1" source="GQO7zx4dWMf84l5eFwv9-1" target="GQO7zx4dWMf84l5eFwv9-5" edge="1">
          <mxGeometry relative="1" as="geometry" />
        </mxCell>
        <mxCell id="GQO7zx4dWMf84l5eFwv9-14" value="" style="group" parent="1" vertex="1" connectable="0">
          <mxGeometry x="560" y="170" width="120" height="60" as="geometry" />
        </mxCell>
        <mxCell id="GQO7zx4dWMf84l5eFwv9-15" value="" style="rounded=0;whiteSpace=wrap;html=1;" parent="GQO7zx4dWMf84l5eFwv9-14" vertex="1">
          <mxGeometry width="120" height="60" as="geometry" />
        </mxCell>
        <mxCell id="GQO7zx4dWMf84l5eFwv9-16" value="内核空间" style="text;html=1;strokeColor=none;fillColor=none;align=center;verticalAlign=middle;whiteSpace=wrap;rounded=0;" parent="GQO7zx4dWMf84l5eFwv9-14" vertex="1">
          <mxGeometry x="30" y="15" width="60" height="30" as="geometry" />
        </mxCell>
        <mxCell id="GQO7zx4dWMf84l5eFwv9-17" value="" style="group" parent="1" vertex="1" connectable="0">
          <mxGeometry x="560" y="330" width="120" height="60" as="geometry" />
        </mxCell>
        <mxCell id="GQO7zx4dWMf84l5eFwv9-18" value="" style="rounded=0;whiteSpace=wrap;html=1;" parent="GQO7zx4dWMf84l5eFwv9-17" vertex="1">
          <mxGeometry width="120" height="60" as="geometry" />
        </mxCell>
        <mxCell id="GQO7zx4dWMf84l5eFwv9-19" value="用户空间" style="text;html=1;strokeColor=none;fillColor=none;align=center;verticalAlign=middle;whiteSpace=wrap;rounded=0;" parent="GQO7zx4dWMf84l5eFwv9-17" vertex="1">
          <mxGeometry x="30" y="15" width="60" height="30" as="geometry" />
        </mxCell>
        <mxCell id="GQO7zx4dWMf84l5eFwv9-22" style="edgeStyle=orthogonalEdgeStyle;rounded=0;orthogonalLoop=1;jettySize=auto;html=1;exitX=0.5;exitY=0;exitDx=0;exitDy=0;entryX=0.017;entryY=0.367;entryDx=0;entryDy=0;entryPerimeter=0;" parent="1" source="GQO7zx4dWMf84l5eFwv9-5" target="GQO7zx4dWMf84l5eFwv9-15" edge="1">
          <mxGeometry relative="1" as="geometry" />
        </mxCell>
        <mxCell id="GQO7zx4dWMf84l5eFwv9-24" style="edgeStyle=orthogonalEdgeStyle;rounded=0;orthogonalLoop=1;jettySize=auto;html=1;exitX=0.5;exitY=1;exitDx=0;exitDy=0;entryX=0;entryY=0.5;entryDx=0;entryDy=0;" parent="1" source="GQO7zx4dWMf84l5eFwv9-5" target="GQO7zx4dWMf84l5eFwv9-18" edge="1">
          <mxGeometry relative="1" as="geometry" />
        </mxCell>
        <mxCell id="GQO7zx4dWMf84l5eFwv9-26" value="" style="group" parent="1" vertex="1" connectable="0">
          <mxGeometry x="190" y="540" width="120" height="60" as="geometry" />
        </mxCell>
        <mxCell id="GQO7zx4dWMf84l5eFwv9-27" value="" style="rounded=0;whiteSpace=wrap;html=1;" parent="GQO7zx4dWMf84l5eFwv9-26" vertex="1">
          <mxGeometry width="120" height="60" as="geometry" />
        </mxCell>
        <mxCell id="GQO7zx4dWMf84l5eFwv9-28" value="IO模型" style="text;html=1;strokeColor=none;fillColor=none;align=center;verticalAlign=middle;whiteSpace=wrap;rounded=0;" parent="GQO7zx4dWMf84l5eFwv9-26" vertex="1">
          <mxGeometry x="30" y="15" width="60" height="30" as="geometry" />
        </mxCell>
        <mxCell id="GQO7zx4dWMf84l5eFwv9-37" value="" style="rounded=1;whiteSpace=wrap;html=1;" parent="1" vertex="1">
          <mxGeometry x="390" y="420" width="420" height="110" as="geometry" />
        </mxCell>
        <mxCell id="GQO7zx4dWMf84l5eFwv9-30" value="" style="group" parent="1" vertex="1" connectable="0">
          <mxGeometry x="640" y="450" width="120" height="60" as="geometry" />
        </mxCell>
        <mxCell id="GQO7zx4dWMf84l5eFwv9-31" value="" style="rounded=0;whiteSpace=wrap;html=1;" parent="GQO7zx4dWMf84l5eFwv9-30" vertex="1">
          <mxGeometry width="120" height="60" as="geometry" />
        </mxCell>
        <mxCell id="GQO7zx4dWMf84l5eFwv9-32" value="异步" style="text;html=1;strokeColor=none;fillColor=none;align=center;verticalAlign=middle;whiteSpace=wrap;rounded=0;" parent="GQO7zx4dWMf84l5eFwv9-30" vertex="1">
          <mxGeometry x="30" y="15" width="60" height="30" as="geometry" />
        </mxCell>
        <mxCell id="GQO7zx4dWMf84l5eFwv9-33" value="" style="group" parent="1" vertex="1" connectable="0">
          <mxGeometry x="450" y="450" width="120" height="60" as="geometry" />
        </mxCell>
        <mxCell id="GQO7zx4dWMf84l5eFwv9-34" value="" style="rounded=0;whiteSpace=wrap;html=1;" parent="GQO7zx4dWMf84l5eFwv9-33" vertex="1">
          <mxGeometry width="120" height="60" as="geometry" />
        </mxCell>
        <mxCell id="GQO7zx4dWMf84l5eFwv9-35" value="同步" style="text;html=1;strokeColor=none;fillColor=none;align=center;verticalAlign=middle;whiteSpace=wrap;rounded=0;" parent="GQO7zx4dWMf84l5eFwv9-33" vertex="1">
          <mxGeometry x="30" y="15" width="60" height="30" as="geometry" />
        </mxCell>
        <mxCell id="GQO7zx4dWMf84l5eFwv9-38" value="" style="rounded=1;whiteSpace=wrap;html=1;" parent="1" vertex="1">
          <mxGeometry x="390" y="570" width="420" height="100" as="geometry" />
        </mxCell>
        <mxCell id="GQO7zx4dWMf84l5eFwv9-39" value="非阻塞" style="rounded=0;whiteSpace=wrap;html=1;" parent="1" vertex="1">
          <mxGeometry x="640" y="590" width="120" height="60" as="geometry" />
        </mxCell>
        <mxCell id="GQO7zx4dWMf84l5eFwv9-40" value="阻塞" style="rounded=0;whiteSpace=wrap;html=1;" parent="1" vertex="1">
          <mxGeometry x="450" y="590" width="120" height="60" as="geometry" />
        </mxCell>
        <mxCell id="GQO7zx4dWMf84l5eFwv9-45" value="" style="endArrow=none;html=1;rounded=0;exitX=0.5;exitY=0;exitDx=0;exitDy=0;" parent="1" source="GQO7zx4dWMf84l5eFwv9-39" edge="1">
          <mxGeometry width="50" height="50" relative="1" as="geometry">
            <mxPoint x="720" y="510" as="sourcePoint" />
            <mxPoint x="510" y="510" as="targetPoint" />
          </mxGeometry>
        </mxCell>
        <mxCell id="GQO7zx4dWMf84l5eFwv9-46" value="" style="endArrow=none;html=1;rounded=0;exitX=0.5;exitY=0;exitDx=0;exitDy=0;entryX=0.5;entryY=1;entryDx=0;entryDy=0;" parent="1" source="GQO7zx4dWMf84l5eFwv9-40" target="GQO7zx4dWMf84l5eFwv9-34" edge="1">
          <mxGeometry width="50" height="50" relative="1" as="geometry">
            <mxPoint x="710" y="600" as="sourcePoint" />
            <mxPoint x="520" y="520" as="targetPoint" />
          </mxGeometry>
        </mxCell>
        <mxCell id="GQO7zx4dWMf84l5eFwv9-47" value="" style="endArrow=none;html=1;rounded=0;exitX=0.5;exitY=0;exitDx=0;exitDy=0;" parent="1" source="GQO7zx4dWMf84l5eFwv9-39" edge="1">
          <mxGeometry width="50" height="50" relative="1" as="geometry">
            <mxPoint x="720" y="610" as="sourcePoint" />
            <mxPoint x="700" y="510" as="targetPoint" />
          </mxGeometry>
        </mxCell>
        <mxCell id="GQO7zx4dWMf84l5eFwv9-48" value="" style="endArrow=none;html=1;rounded=0;exitX=0.5;exitY=0;exitDx=0;exitDy=0;entryX=0.5;entryY=1;entryDx=0;entryDy=0;" parent="1" source="GQO7zx4dWMf84l5eFwv9-40" target="GQO7zx4dWMf84l5eFwv9-31" edge="1">
          <mxGeometry width="50" height="50" relative="1" as="geometry">
            <mxPoint x="710" y="600" as="sourcePoint" />
            <mxPoint x="710" y="520" as="targetPoint" />
          </mxGeometry>
        </mxCell>
        <mxCell id="GQO7zx4dWMf84l5eFwv9-52" value="" style="group" parent="1" vertex="1" connectable="0">
          <mxGeometry x="950" y="405" width="280" height="95" as="geometry" />
        </mxCell>
        <mxCell id="GQO7zx4dWMf84l5eFwv9-49" value="" style="rounded=0;whiteSpace=wrap;html=1;" parent="GQO7zx4dWMf84l5eFwv9-52" vertex="1">
          <mxGeometry width="280" height="95" as="geometry" />
        </mxCell>
        <mxCell id="GQO7zx4dWMf84l5eFwv9-50" value="阻塞型IO模型" style="text;html=1;strokeColor=none;fillColor=none;align=center;verticalAlign=middle;whiteSpace=wrap;rounded=0;" parent="GQO7zx4dWMf84l5eFwv9-52" vertex="1">
          <mxGeometry x="85" y="32.5" width="110" height="30" as="geometry" />
        </mxCell>
        <mxCell id="GQO7zx4dWMf84l5eFwv9-53" value="" style="group" parent="1" vertex="1" connectable="0">
          <mxGeometry x="950" y="540" width="280" height="95" as="geometry" />
        </mxCell>
        <mxCell id="GQO7zx4dWMf84l5eFwv9-54" value="" style="rounded=0;whiteSpace=wrap;html=1;" parent="GQO7zx4dWMf84l5eFwv9-53" vertex="1">
          <mxGeometry width="280" height="95" as="geometry" />
        </mxCell>
        <mxCell id="GQO7zx4dWMf84l5eFwv9-55" value="非阻塞型IO模型" style="text;html=1;strokeColor=none;fillColor=none;align=center;verticalAlign=middle;whiteSpace=wrap;rounded=0;" parent="GQO7zx4dWMf84l5eFwv9-53" vertex="1">
          <mxGeometry x="85" y="32.5" width="110" height="30" as="geometry" />
        </mxCell>
        <mxCell id="GQO7zx4dWMf84l5eFwv9-56" value="" style="group" parent="1" vertex="1" connectable="0">
          <mxGeometry x="950" y="680" width="280" height="95" as="geometry" />
        </mxCell>
        <mxCell id="GQO7zx4dWMf84l5eFwv9-57" value="" style="rounded=0;whiteSpace=wrap;html=1;" parent="GQO7zx4dWMf84l5eFwv9-56" vertex="1">
          <mxGeometry width="280" height="95" as="geometry" />
        </mxCell>
        <mxCell id="GQO7zx4dWMf84l5eFwv9-58" value="信号驱动式IO模型" style="text;html=1;strokeColor=none;fillColor=none;align=center;verticalAlign=middle;whiteSpace=wrap;rounded=0;" parent="GQO7zx4dWMf84l5eFwv9-56" vertex="1">
          <mxGeometry x="85" y="32.5" width="110" height="30" as="geometry" />
        </mxCell>
        <mxCell id="T3foOs0ktd5D6TJzi9xr-1" value="" style="group" vertex="1" connectable="0" parent="1">
          <mxGeometry x="950" y="820" width="280" height="95" as="geometry" />
        </mxCell>
        <mxCell id="T3foOs0ktd5D6TJzi9xr-2" value="" style="rounded=0;whiteSpace=wrap;html=1;" vertex="1" parent="T3foOs0ktd5D6TJzi9xr-1">
          <mxGeometry width="280" height="95" as="geometry" />
        </mxCell>
        <mxCell id="T3foOs0ktd5D6TJzi9xr-3" value="异步IO模型" style="text;html=1;strokeColor=none;fillColor=none;align=center;verticalAlign=middle;whiteSpace=wrap;rounded=0;" vertex="1" parent="T3foOs0ktd5D6TJzi9xr-1">
          <mxGeometry x="85" y="32.5" width="110" height="30" as="geometry" />
        </mxCell>
        <mxCell id="T3foOs0ktd5D6TJzi9xr-4" value="" style="group" vertex="1" connectable="0" parent="1">
          <mxGeometry x="370" y="750" width="280" height="95" as="geometry" />
        </mxCell>
        <mxCell id="T3foOs0ktd5D6TJzi9xr-5" value="" style="rounded=0;whiteSpace=wrap;html=1;" vertex="1" parent="T3foOs0ktd5D6TJzi9xr-4">
          <mxGeometry width="280" height="95" as="geometry" />
        </mxCell>
        <mxCell id="T3foOs0ktd5D6TJzi9xr-6" value="IO多路复用" style="text;html=1;strokeColor=none;fillColor=none;align=center;verticalAlign=middle;whiteSpace=wrap;rounded=0;" vertex="1" parent="T3foOs0ktd5D6TJzi9xr-4">
          <mxGeometry x="85" y="32.5" width="110" height="30" as="geometry" />
        </mxCell>
        <mxCell id="T3foOs0ktd5D6TJzi9xr-12" value="" style="group" vertex="1" connectable="0" parent="1">
          <mxGeometry x="150" y="950" width="120" height="60" as="geometry" />
        </mxCell>
        <mxCell id="T3foOs0ktd5D6TJzi9xr-7" value="" style="rounded=0;whiteSpace=wrap;html=1;" vertex="1" parent="T3foOs0ktd5D6TJzi9xr-12">
          <mxGeometry width="120" height="60" as="geometry" />
        </mxCell>
        <mxCell id="T3foOs0ktd5D6TJzi9xr-8" value="Select" style="text;html=1;strokeColor=none;fillColor=none;align=center;verticalAlign=middle;whiteSpace=wrap;rounded=0;" vertex="1" parent="T3foOs0ktd5D6TJzi9xr-12">
          <mxGeometry x="30" y="10" width="60" height="40" as="geometry" />
        </mxCell>
        <mxCell id="T3foOs0ktd5D6TJzi9xr-13" value="" style="group" vertex="1" connectable="0" parent="1">
          <mxGeometry x="300" y="950" width="120" height="60" as="geometry" />
        </mxCell>
        <mxCell id="T3foOs0ktd5D6TJzi9xr-14" value="" style="rounded=0;whiteSpace=wrap;html=1;" vertex="1" parent="T3foOs0ktd5D6TJzi9xr-13">
          <mxGeometry width="120" height="60" as="geometry" />
        </mxCell>
        <mxCell id="T3foOs0ktd5D6TJzi9xr-15" value="Poll" style="text;html=1;strokeColor=none;fillColor=none;align=center;verticalAlign=middle;whiteSpace=wrap;rounded=0;" vertex="1" parent="T3foOs0ktd5D6TJzi9xr-13">
          <mxGeometry x="30" y="10" width="60" height="40" as="geometry" />
        </mxCell>
        <mxCell id="T3foOs0ktd5D6TJzi9xr-16" value="" style="group" vertex="1" connectable="0" parent="1">
          <mxGeometry x="450" y="950" width="120" height="60" as="geometry" />
        </mxCell>
        <mxCell id="T3foOs0ktd5D6TJzi9xr-17" value="" style="rounded=0;whiteSpace=wrap;html=1;" vertex="1" parent="T3foOs0ktd5D6TJzi9xr-16">
          <mxGeometry width="120" height="60" as="geometry" />
        </mxCell>
        <mxCell id="T3foOs0ktd5D6TJzi9xr-18" value="Epoll" style="text;html=1;strokeColor=none;fillColor=none;align=center;verticalAlign=middle;whiteSpace=wrap;rounded=0;" vertex="1" parent="T3foOs0ktd5D6TJzi9xr-16">
          <mxGeometry x="30" y="10" width="60" height="40" as="geometry" />
        </mxCell>
      </root>
    </mxGraphModel>
  </diagram>
</mxfile>
